<svg version="1" xmlns="http://www.w3.org/2000/svg" width="2548" height="2548" viewBox="0 0 1911.000000 1911.000000"><path d="M0 955.5V1911h1911V0H0v955.5zm1253.8-625.8L1404.5 179l52.8 52.8c29 29 52.7 53 52.7 53.3 0 .4-91.7 92.3-203.7 204.3l-203.7 203.7-203.8-203.8L695 285.5l53.2-53.2 53.3-53.3 150.7 150.7L1103 480.5l150.8-150.8zm416.5 115.1l52.9 52.9-150.8 150.7-150.7 150.8L1572.5 950l150.9 150.9-52.6 52.5c-28.9 28.9-53 52.6-53.4 52.6-.5 0-92.5-91.6-204.4-203.5L1209.5 799 1413 595.5C1524.9 483.6 1616.7 392 1617 392c.3 0 24.3 23.8 53.3 52.8zM790.7 596.2C902.5 708 994 799.8 994 800.2c0 .4-23.7 24.4-52.7 53.3l-52.6 52.7-149.6-149.4c-82.2-82.1-149.7-149.6-149.9-150.1-.2-.4-.9-.7-1.7-.7-.7 0-68.8 67.5-151.3 150-82.5 82.5-150.2 150-150.5 150-.8 0-105.7-105-105.7-105.8 0-.8 406.2-407.2 407-407.2.3 0 92 91.5 203.7 203.2z"/></svg>